PathFileType	4	(X/Y/Z)	/Users/itak/Documents/Research/Walk-IL/dataset/trc/00081_00006.trc
DataRate	CameraRate	NumFrames	NumMarkers	Units	OrigDataRate	OrigDataStartFrame	OrigNumFrames
100.000000	100.000000	4	53	mm	100.000000	0	501
Frame#	Time	RPSI			LPSI			L3			STRN			T10			C7			CLAV			RBAK			LBAK			LSHO			LUPA			LAEL			LAOL			LWTS			LWPS			LFRA			LIFD			LHPS			LHTS			RSHO			RUPA			RAEL			RAOL			RWTS			RWPS			RFRA			RIFD			RHTS			RHPS			RBHD			LFHD			RFHD			LBHD			LHIP			RHIP			RASI			LASI			LKNE			LTHI			LANK			LTIP			LTOE			LMT1			LMT5			LHEE			RKNE			RTHI			RANK			RTIP			RTOE			RMT1			RMT5			RHEE			
		X1	Y1	Z1	X2	Y2	Z2	X3	Y3	Z3	X4	Y4	Z4	X5	Y5	Z5	X6	Y6	Z6	X7	Y7	Z7	X8	Y8	Z8	X9	Y9	Z9	X10	Y10	Z10	X11	Y11	Z11	X12	Y12	Z12	X13	Y13	Z13	X14	Y14	Z14	X15	Y15	Z15	X16	Y16	Z16	X17	Y17	Z17	X18	Y18	Z18	X19	Y19	Z19	X20	Y20	Z20	X21	Y21	Z21	X22	Y22	Z22	X23	Y23	Z23	X24	Y24	Z24	X25	Y25	Z25	X26	Y26	Z26	X27	Y27	Z27	X28	Y28	Z28	X29	Y29	Z29	X30	Y30	Z30	X31	Y31	Z31	X32	Y32	Z32	X33	Y33	Z33	X34	Y34	Z34	X35	Y35	Z35	X36	Y36	Z36	X37	Y37	Z37	X38	Y38	Z38	X39	Y39	Z39	X40	Y40	Z40	X41	Y41	Z41	X42	Y42	Z42	X43	Y43	Z43	X44	Y44	Z44	X45	Y45	Z45	X46	Y46	Z46	X47	Y47	Z47	X48	Y48	Z48	X49	Y49	Z49	X50	Y50	Z50	X51	Y51	Z51	X52	Y52	Z52	X53	Y53	Z53	

1	0	-1367.428588867188	1033.888061523438	474.3584899902344	-1380.43701171875	1024.640258789062	298.9006958007812	-1371.150268554688	1081.928344726562	379.65625	-1128.139282226562	1286.889526367188	379.0805358886719	-1394.91455078125	1216.811645507812	377.1516418457031	-1340.966430664062	1484.913452148438	376.9430541992188	-1159.159545898438	1401.47314453125	378.8594360351562	-1400.34375	1344.145629882812	450.4067993164062	-1361.509765625	1447.826171875	274.4498901367188	-1257.027587890625	1454.38916015625	202.7256011962891	-1270.03857421875	1327.306274414062	123.8922576904297	-1244.216430664062	1112.79541015625	104.1795349121094	-1307.759887695312	1096.08642578125	188.2336883544922	-1141.283325195312	879.56103515625	169.8691101074219	-1200.0244140625	863.9024658203125	111.5691833496094	-1218.853881835938	1004.440734863281	97.82173919677734	-1118.6533203125	695.4534301757812	191.4815521240234	-1162.705322265625	785.669677734375	117.5161895751953	-1112.7392578125	798.663330078125	165.5426635742188	-1277.270629882812	1447.779541015625	551.8525390625	-1287.324096679688	1377.822265625	615.2488403320312	-1305.344482421875	1109.7216796875	637.55224609375	-1282.350708007812	1090.563720703125	540.6802978515625	-1142.50146484375	869.8026733398438	602.9714965820312	-1214.156494140625	847.9776611328125	648.3165893554688	-1287.642211914062	1030.576171875	643.3837890625	-1121.176879882812	684.0671997070312	583.0311889648438	-1109.43896484375	772.6326904296875	602.0386962890625	-1168.171752929688	763.2561645507812	651.3839111328125	-1310.237060546875	1668.3017578125	318.8048706054688	-1136.06787109375	1698.616821289062	443.329345703125	-1135.703735351562	1704.553588867188	317.3734741210938	-1302.566284179688	1654.9462890625	456.10986328125	-1278.000366210938	961.0457153320312	207.4806671142578	-1296.533813476562	961.48779296875	547.2898559570312	-1172.914428710938	978.87255859375	523.2955322265625	-1163.230712890625	972.793701171875	253.9413146972656	-1196.90185546875	499.8504028320312	269.6625671386719	-1230.026245117188	638.6038818359375	229.4706878662109	-1346.849853515625	53.32090377807617	266.8605651855469	-1278.236206054688	261.7925109863281	254.9042053222656	-1140.423950195312	45.83492660522461	263.5978393554688	-1188.81689453125	44.11336135864258	319.4260559082031	-1246.440551757812	45.78937911987305	223.9334259033203	-1397.599243164062	51.48825836181641	342.6691589355469	-1217.177368164062	518.0762939453125	519.068359375	-1212.957397460938	788.8988037109375	552.2052001953125	-1339.551025390625	45.32767868041992	507.2198486328125	-1245.457641601562	395.7405700683594	522.2987060546875	-1119.142333984375	43.49785995483398	485.3379821777344	-1178.575439453125	49.42815780639648	441.5847778320312	-1216.652099609375	48.65404510498047	531.211181640625	-1381.954467773438	47.92667770385742	446.7458801269531	
2	0.01	-1367.317260742188	1033.867431640625	474.1571960449219	-1380.427490234375	1024.682495117188	298.7767333984375	-1371.064453125	1081.958129882812	379.5608215332031	-1127.990844726562	1286.892333984375	378.9916687011719	-1394.781372070312	1216.83154296875	376.9920959472656	-1340.838745117188	1484.9384765625	376.7905883789062	-1159.083984375	1401.449096679688	378.8021545410156	-1400.276733398438	1344.199340820312	450.2911071777344	-1361.346923828125	1447.850830078125	274.3077697753906	-1256.8818359375	1454.356811523438	202.5766906738281	-1269.820190429688	1327.259521484375	123.8430633544922	-1244.158935546875	1112.71240234375	104.2280807495117	-1307.754760742188	1096.087890625	188.2579345703125	-1141.403442382812	879.4381713867188	170.0581665039062	-1200.134033203125	863.7901000976562	111.7525634765625	-1218.8876953125	1004.349426269531	97.90818023681641	-1118.96044921875	695.321044921875	191.8001556396484	-1162.826904296875	785.5338745117188	117.8056106567383	-1112.832763671875	798.5609130859375	165.7842407226562	-1277.201293945312	1447.79638671875	551.7510986328125	-1287.282470703125	1377.859008789062	615.0780029296875	-1305.326904296875	1109.744140625	637.43310546875	-1282.4033203125	1090.587524414062	540.534423828125	-1142.506958007812	869.7896118164062	602.7824096679688	-1214.149169921875	847.9658813476562	648.2081298828125	-1287.637451171875	1030.630737304688	643.2965698242188	-1121.187377929688	684.0567626953125	582.8816528320312	-1109.455078125	772.6183471679688	601.885986328125	-1168.177612304688	763.2359619140625	651.3333129882812	-1310.118896484375	1668.302612304688	318.6338195800781	-1135.945556640625	1698.61962890625	443.2291870117188	-1135.582275390625	1704.528564453125	317.2778625488281	-1302.47802734375	1654.96337890625	455.9723205566406	-1277.973876953125	961.046875	207.3997497558594	-1296.546752929688	961.5526733398438	547.2579345703125	-1172.95654296875	978.8671264648438	523.149658203125	-1163.183715820312	972.8024291992188	253.8186492919922	-1196.93310546875	499.8402099609375	269.5991821289062	-1230.076293945312	638.6193237304688	229.4141540527344	-1346.84912109375	53.31698989868164	266.8534851074219	-1278.285278320312	261.804443359375	254.8492431640625	-1140.42236328125	45.83452606201172	263.5923767089844	-1188.818237304688	44.11598587036133	319.415771484375	-1246.438110351562	45.77514266967773	223.9244689941406	-1397.62939453125	51.52980041503906	342.6390686035156	-1217.095825195312	518.0841674804688	519.0183715820312	-1212.897338867188	788.8927612304688	552.0995483398438	-1339.545776367188	45.33718109130859	507.209228515625	-1245.398803710938	395.7614135742188	522.250244140625	-1119.12841796875	43.49163818359375	485.3334655761719	-1178.576904296875	49.41786193847656	441.5848388671875	-1216.644165039062	48.65038299560547	531.2041015625	-1381.934936523438	47.94117736816406	446.7306213378906	
3	0.02	-1367.18896484375	1033.846923828125	473.9279479980469	-1380.416381835938	1024.733276367188	298.6295166015625	-1370.964477539062	1081.993530273438	379.4395446777344	-1127.8017578125	1286.889770507812	378.8794555664062	-1394.62109375	1216.85546875	376.8025512695312	-1340.681030273438	1484.971069335938	376.5910034179688	-1158.97265625	1401.421752929688	378.7130432128906	-1400.194458007812	1344.270263671875	450.1463012695312	-1361.144653320312	1447.880004882812	274.1256713867188	-1256.693237304688	1454.318115234375	202.3896179199219	-1269.5546875	1327.201416015625	123.7706832885742	-1244.0908203125	1112.609619140625	104.2873916625977	-1307.750122070312	1096.092529296875	188.2883605957031	-1141.579711914062	879.2708740234375	170.2967071533203	-1200.289184570312	863.646728515625	111.9758224487305	-1218.938354492188	1004.231262207031	98.017578125	-1119.386352539062	695.1463623046875	192.2005462646484	-1163.017578125	785.3614501953125	118.1456909179688	-1112.983276367188	798.4140625	166.0924987792969	-1277.112915039062	1447.81591796875	551.61376953125	-1287.230224609375	1377.901000976562	614.8764038085938	-1305.304443359375	1109.773071289062	637.271240234375	-1282.47900390625	1090.61767578125	540.3546142578125	-1142.543212890625	869.7479248046875	602.5604248046875	-1214.165161132812	847.9490356445312	648.0794067382812	-1287.641967773438	1030.702514648438	643.1683959960938	-1121.249877929688	684.0196533203125	582.701904296875	-1109.5263671875	772.5772094726562	601.6936645507812	-1168.2275390625	763.1956787109375	651.2462768554688	-1309.966796875	1668.309326171875	318.43603515625	-1135.800048828125	1698.622436523438	443.1132507324219	-1135.422119140625	1704.501586914062	317.1579895019531	-1302.369995117188	1654.986572265625	455.7949829101562	-1277.95068359375	961.047607421875	207.2964019775391	-1296.556030273438	961.638671875	547.2227783203125	-1172.98583984375	978.8715209960938	522.9642944335938	-1163.131958007812	972.8141479492188	253.6609497070312	-1196.962158203125	499.8270263671875	269.5213317871094	-1230.146362304688	638.6405029296875	229.3329467773438	-1346.848754882812	53.31185150146484	266.844482421875	-1278.340698242188	261.8186340332031	254.7817230224609	-1140.418090820312	45.83253479003906	263.5859985351562	-1188.819213867188	44.11969757080078	319.4044189453125	-1246.4365234375	45.75927352905273	223.9131011962891	-1397.65673828125	51.57265472412109	342.6091613769531	-1216.98388671875	518.0966796875	518.9569702148438	-1212.824462890625	788.8892822265625	551.9761352539062	-1339.5380859375	45.34700393676758	507.2000427246094	-1245.31884765625	395.7843933105469	522.191162109375	-1119.110595703125	43.48400497436523	485.3264770507812	-1178.576171875	49.40780639648438	441.5848999023438	-1216.634033203125	48.64866256713867	531.197265625	-1381.9072265625	47.96454238891602	446.7073669433594	
4	0.03	-1367.0546875	1033.83056640625	473.6922302246094	-1380.4052734375	1024.789184570312	298.4685363769531	-1370.858032226562	1082.032592773438	379.2967224121094	-1127.580810546875	1286.879150390625	378.7489929199219	-1394.446411132812	1216.88232421875	376.5964965820312	-1340.5009765625	1485.009765625	376.3490295410156	-1158.822875976562	1401.394165039062	378.587646484375	-1400.099853515625	1344.355346679688	449.9754943847656	-1360.911010742188	1447.912109375	273.9097290039062	-1256.467407226562	1454.275634765625	202.1722717285156	-1269.256103515625	1327.135131835938	123.6742782592773	-1244.016479492188	1112.49169921875	104.3540191650391	-1307.747192382812	1096.101440429688	188.3236083984375	-1141.816162109375	879.0608520507812	170.5751800537109	-1200.492553710938	863.4785766601562	112.2256393432617	-1219.007446289062	1004.090148925781	98.14535522460938	-1119.928344726562	694.9306030273438	192.6588439941406	-1163.286743164062	785.158935546875	118.5119018554688	-1113.203125	798.2217407226562	166.4555053710938	-1277.007690429688	1447.837036132812	551.4408569335938	-1287.169555664062	1377.945068359375	614.6564331054688	-1305.278686523438	1109.807739257812	637.0691528320312	-1282.578857421875	1090.652954101562	540.1492919921875	-1142.620971679688	869.6688232421875	602.31884765625	-1214.218383789062	847.9267578125	647.9373779296875	-1287.661376953125	1030.789916992188	642.9956665039062	-1121.3876953125	683.9442749023438	582.503173828125	-1109.671630859375	772.5013427734375	601.4671630859375	-1168.344482421875	763.1309204101562	651.1166381835938	-1309.783813476562	1668.323364257812	318.2239074707031	-1135.638793945312	1698.624877929688	442.9880981445312	-1135.2255859375	1704.475708007812	317.0187377929688	-1302.24609375	1655.015258789062	455.582275390625	-1277.937133789062	961.0473022460938	207.1737823486328	-1296.557495117188	961.7421875	547.1856689453125	-1172.996459960938	978.8866577148438	522.7515258789062	-1163.080932617188	972.828369140625	253.4743499755859	-1196.982299804688	499.8111572265625	269.432861328125	-1230.239013671875	638.6678466796875	229.2236785888672	-1346.84814453125	53.30547714233398	266.8342895507812	-1278.39599609375	261.83349609375	254.7057952880859	-1140.410400390625	45.82809066772461	263.5792541503906	-1188.8193359375	44.12387847900391	319.3927307128906	-1246.436279296875	45.74257659912109	223.9000244140625	-1397.676513671875	51.61165618896484	342.5842590332031	-1216.84326171875	518.1134033203125	518.8875732421875	-1212.741943359375	788.8898315429688	551.8432006835938	-1339.52783203125	45.35719680786133	507.1932678222656	-1245.217529296875	395.8080139160156	522.1240234375	-1119.09033203125	43.47505569458008	485.3175048828125	-1178.572021484375	49.39919281005859	441.5848999023438	-1216.622192382812	48.6497688293457	531.1915893554688	-1381.872314453125	47.99680328369141	446.6769409179688	
